PathFileType	4	(X/Y/Z)	./resultDataOpenSim/trcMotMarkerGrf/sub10/qtm-03-04.trc
DataRate	CameraRate	NumFrames	NumMarkers	Units	OrigDataRate	OrigDataStartFrame	OrigNumFrames
250.000000	250.000000	14	24	m	250.000000	66	520
Frame#	Time	L.Toe.Tip			R.Toe.Tip			L.Ankle.Lat			R.Ankle.Lat			L.Ankle.Med			R.Ankle.Med			L.Heel			R.Heel			L.Knee.Lat			R.Knee.Lat			L.Knee.Med			R.Knee.Med			L.Thigh.Upper			R.Thigh.Upper			L.ASIS			R.ASIS			V.Sacral			L.Acromium			R.Acromium			C7			L.Elbow			R.Elbow			L.Wrist.Lat			R.Wrist.Lat
		X1	Y1	Z1	X2	Y2	Z2	X3	Y3	Z3	X4	Y4	Z4	X5	Y5	Z5	X6	Y6	Z6	X7	Y7	Z7	X8	Y8	Z8	X9	Y9	Z9	X10	Y10	Z10	X11	Y11	Z11	X12	Y12	Z12	X13	Y13	Z13	X14	Y14	Z14	X15	Y15	Z15	X16	Y16	Z16	X17	Y17	Z17	X18	Y18	Z18	X19	Y19	Z19	X20	Y20	Z20	X21	Y21	Z21	X22	Y22	Z22	X23	Y23	Z23	X24	Y24	Z24

66	0.26	-1.422946	0.042777298	-0.063774407	-0.71470567	0.042390521	0.047769491	-1.4663393	0.16709209	-0.10296978	-0.85482475	0.050920486	0.082238394	-1.4393144	0.17294385	-0.025518085	-0.83918261	0.083829545	0.0018558945	-1.5192704	0.20205422	-0.053523108	-0.90440814	0.027779163	0.032356348	-1.1822037	0.43338537	-0.13413753	-0.87482917	0.44945388	0.13472158	-1.1685354	0.39853435	-0.020041221	-0.88191508	0.4600988	0.0074281531	-1.0574179	0.79666266	-0.1811829	-0.97315151	0.85704568	0.19550376	-0.9729467	0.90192175	-0.13013059	-0.92481315	0.93943309	0.1042614	-1.1474032	0.94288037	0.021655576	-1.0078166	1.3975226	-0.15130557	-1.0470549	1.3846801	0.17054548	-1.1053836	1.4203845	0.00064389712	-1.0939033	1.0523596	-0.20919336	-1.1915774	1.0707304	0.17106577	-0.87803675	0.93158243	-0.16238747	-1.1664934	0.84880646	0.26011942
67	0.264	-1.42037	0.044235469	-0.064177479	-0.71444907	0.042088276	0.047535086	-1.4591552	0.17000688	-0.1036971	-0.85438471	0.050898973	0.082027573	-1.4319667	0.17509733	-0.026163028	-0.83901592	0.083678629	0.0016287792	-1.5107853	0.20694255	-0.054155632	-0.90433458	0.027851907	0.032388269	-1.172026	0.43246339	-0.13495893	-0.87128517	0.44947841	0.13449655	-1.1570888	0.39668827	-0.021399367	-0.87786324	0.46010855	0.0073317885	-1.0511804	0.79665128	-0.18085194	-0.96765962	0.85780214	0.19582224	-0.96738123	0.90250067	-0.1298447	-0.91930385	0.94007542	0.10415805	-1.1414864	0.9436559	0.022019845	-1.0027093	1.3984411	-0.15075718	-1.0416859	1.3853634	0.17101644	-1.1001445	1.4209656	0.0011609813	-1.0893786	1.0536553	-0.20903303	-1.1851584	1.0711776	0.17138542	-0.87418737	0.93185262	-0.16219054	-1.1604514	0.84933127	0.26071628
68	0.268	-1.4176777	0.045826566	-0.064565237	-0.71423951	0.041826549	0.047425986	-1.4516283	0.17307489	-0.10448893	-0.85417175	0.050950037	0.081891947	-1.424493	0.177353	-0.026761689	-0.83885379	0.083550411	0.0014283196	-1.5020509	0.21202818	-0.054978893	-0.90427411	0.027913457	0.0323995	-1.1620239	0.43150711	-0.13567931	-0.86781063	0.44955166	0.13425743	-1.1461396	0.39477671	-0.022507794	-0.87403428	0.46010883	0.0071906478	-1.0449965	0.7966492	-0.18049954	-0.96236844	0.85851607	0.19616467	-0.96189486	0.90306023	-0.1295905	-0.91416496	0.94067022	0.10409065	-1.1356696	0.9443639	0.022371066	-0.99761465	1.3993305	-0.15024035	-1.0362905	1.3860496	0.17149792	-1.0949164	1.4215308	0.0016764612	-1.0848615	1.0549039	-0.20893831	-1.1787113	1.0716059	0.17175002	-0.87015064	0.93205138	-0.16198125	-1.1545764	0.84978506	0.26132671
69	0.272	-1.4148682	0.04748247	-0.064927425	-0.7140625	0.041603769	0.047351114	-1.4437027	0.17628471	-0.1053127	-0.85417386	0.051062189	0.081816242	-1.4169063	0.17968687	-0.0273165	-0.83869056	0.083441888	0.0012387479	-1.4928077	0.21714834	-0.055602693	-0.90422449	0.02797236	0.032402172	-1.1522447	0.43050997	-0.13627952	-0.86449623	0.44968608	0.13404146	-1.1356396	0.39282991	-0.023380054	-0.87034856	0.46013523	0.0070322953	-1.0388667	0.79668111	-0.18014283	-0.95732493	0.85917618	0.19648259	-0.95648104	0.90360584	-0.12936976	-0.90933719	0.94120923	0.10405261	-1.1300167	0.9450173	0.022644775	-0.99254229	1.4001887	-0.14975288	-1.0308409	1.3867471	0.17199454	-1.0896984	1.4220964	0.0021902789	-1.0803432	1.0560979	-0.20886443	-1.1722341	1.072016	0.17216719	-0.86592557	0.93219506	-0.16175879	-1.1488579	0.85015414	0.2619466
70	0.276	-1.4119152	0.049154448	-0.065272445	-0.71390596	0.041414701	0.047237472	-1.435483	0.17958796	-0.10609392	-0.85421598	0.051168716	0.081733832	-1.4091723	0.18208575	-0.027840231	-0.83852871	0.083351359	0.001053156	-1.482994	0.22220617	-0.05605257	-0.904183	0.028031007	0.032405226	-1.1424516	0.42950056	-0.1368539	-0.86147385	0.44991362	0.13388501	-1.1252098	0.39092982	-0.024146992	-0.86685654	0.46019509	0.0068442643	-1.0327921	0.79675591	-0.17979038	-0.9525224	0.85978041	0.19675839	-0.95113157	0.90414144	-0.12916835	-0.90457816	0.94169463	0.10405788	-1.1245367	0.94562076	0.022840879	-0.98749819	1.4010063	-0.14929012	-1.0253251	1.3874527	0.17249642	-1.0844925	1.4226879	0.0027046056	-1.0758143	1.0572343	-0.20877089	-1.1657322	1.0724043	0.17265195	-0.86168348	0.93230756	-0.16157033	-1.1430918	0.85047493	0.26259778
71	0.28	-1.4087736	0.050813902	-0.065638643	-0.71375811	0.041250292	0.047060865	-1.4271383	0.18290809	-0.10676055	-0.85412593	0.051217913	0.081587493	-1.4012573	0.18452391	-0.028330156	-0.83836794	0.083274313	0.00087139234	-1.4727996	0.22711717	-0.056230018	-0.90414712	0.028082842	0.032406713	-1.1324379	0.42852477	-0.13749821	-0.85875583	0.45023968	0.13379338	-1.1145601	0.38916436	-0.024909682	-0.86362936	0.46029162	0.0066013516	-1.0267766	0.79686787	-0.1794335	-0.94787834	0.86034788	0.19702785	-0.94584231	0.90466999	-0.12897601	-0.89960518	0.94214909	0.10415836	-1.1192076	0.94617114	0.022975926	-0.98248015	1.4017791	-0.14885334	-1.0197586	1.3881479	0.17298733	-1.0792955	1.4233053	0.0032184467	-1.0712675	1.0583177	-0.20866064	-1.1592171	1.0727577	0.17322008	-0.85765324	0.93239668	-0.16148051	-1.1370404	0.85079595	0.26330672
72	0.284	-1.405386	0.052460916	-0.066086154	-0.7136128	0.041102901	0.046844773	-1.4187242	0.18616744	-0.1073003	-0.85390012	0.051225476	0.081384764	-1.393188	0.18695122	-0.028754519	-0.83820049	0.083203283	0.00069310251	-1.4624638	0.2317743	-0.05590499	-0.90411339	0.028120159	0.032401203	-1.1221918	0.42762318	-0.13822701	-0.85613764	0.4506073	0.13372256	-1.1036416	0.38759274	-0.025690575	-0.86062874	0.46044125	0.0063109585	-1.0208229	0.79701298	-0.17906771	-0.94329041	0.86089421	0.19732872	-0.94062208	0.90518906	-0.12880996	-0.89435322	0.94259397	0.10437429	-1.1140045	0.94666014	0.023052281	-0.9774783	1.4025149	-0.14844748	-1.01417	1.3888078	0.17345534	-1.0741001	1.423927	0.0037277308	-1.0667062	1.0593574	-0.20857724	-1.1527056	1.0730607	0.17387405	-0.85391556	0.9324543	-0.16151611	-1.1306484	0.8511272	0.26407255
73	0.288	-1.4016855	0.054136072	-0.066659807	-0.71347122	0.040970013	0.046634871	-1.4101831	0.18930833	-0.10775564	-0.85365807	0.051240297	0.081175695	-1.3850612	0.18929636	-0.029065736	-0.83802049	0.083131289	0.00051582239	-1.4520536	0.23608345	-0.055172251	-0.90407826	0.028143928	0.032390837	-1.1117779	0.42680738	-0.1390027	-0.85336689	0.45094264	0.13361338	-1.0925457	0.38624712	-0.026468354	-0.85774749	0.46066053	0.0060081355	-1.0149244	0.79719579	-0.17870346	-0.93872232	0.86140195	0.19764319	-0.9354919	0.90569597	-0.12869497	-0.88898788	0.94303167	0.10464978	-1.1089181	0.9470817	0.023052934	-0.97248806	1.4032296	-0.14807852	-1.00857	1.3894235	0.17389796	-1.068905	1.4245547	0.0042377627	-1.0621432	1.06036	-0.20855845	-1.1462118	1.0733151	0.17459909	-0.85028282	0.93246584	-0.16162965	-1.1240284	0.85144711	0.26486291
74	0.292	-1.3975855	0.055920274	-0.067367548	-0.71333653	0.040851683	0.046465582	-1.4014636	0.19230073	-0.10816523	-0.85348605	0.051285918	0.080995248	-1.3769996	0.19149098	-0.029230235	-0.83783113	0.083054084	0.00033524232	-1.4415272	0.24000602	-0.054346947	-0.90404194	0.028162335	0.032382735	-1.1012407	0.42606022	-0.13979036	-0.85038546	0.45121457	0.1334342	-1.0813564	0.38515015	-0.027229101	-0.85488806	0.46094583	0.0057087148	-1.0090698	0.79742049	-0.17834812	-0.93420173	0.86183986	0.19791788	-0.93046068	0.90620545	-0.12862715	-0.88367851	0.94345692	0.10492811	-1.1039405	0.94743768	0.022965661	-0.96751727	1.4039387	-0.14774812	-1.0029553	1.3900097	0.17432328	-1.0637181	1.4252189	0.004760597	-1.0575816	1.0613277	-0.20858889	-1.1397281	1.073549	0.17537415	-0.84646777	0.93241873	-0.16174159	-1.1173081	0.85173668	0.26563485
75	0.296	-1.3929792	0.057912146	-0.068193409	-0.7132108	0.040745279	0.046341133	-1.3925732	0.19514511	-0.10852251	-0.85338628	0.051355951	0.080848395	-1.369103	0.19351099	-0.02923739	-0.83764062	0.082969504	0.0001453649	-1.4308725	0.24359898	-0.053706609	-0.90400876	0.028183976	0.032374862	-1.0905913	0.42537646	-0.14057344	-0.84727904	0.45141349	0.13316821	-1.0700947	0.38432224	-0.027976326	-0.85199718	0.4612682	0.005395935	-1.0032483	0.79769108	-0.17799519	-0.92974988	0.86220006	0.19811975	-0.92549012	0.90676297	-0.12857166	-0.87847293	0.94386888	0.1052079	-1.0990406	0.94773924	0.022816595	-0.96257099	1.4046451	-0.14744892	-0.99732191	1.3905853	0.17473992	-1.0585454	1.4259321	0.005297791	-1.0530095	1.0622632	-0.20861971	-1.1332257	1.0738008	0.17618439	-0.84237367	0.93231794	-0.161829	-1.1105429	0.85199205	0.26636859
76	0.3	-1.3877494	0.06019058	-0.069104514	-0.71309508	0.040645309	0.046240835	-1.3835431	0.1978706	-0.10880316	-0.85332527	0.051437985	0.080725618	-1.3613365	0.19539607	-0.029113911	-0.8374573	0.082877022	-6.0109637e-05	-1.4201357	0.2470082	-0.053554881	-0.90398395	0.028219187	0.032337205	-1.0798217	0.42477728	-0.14133727	-0.84408683	0.45150687	0.13279025	-1.0587954	0.38376597	-0.028696621	-0.84906973	0.46159168	0.0050542176	-0.99744414	0.7980166	-0.17763097	-0.92534849	0.86249689	0.19824789	-0.92048162	0.90744122	-0.12848099	-0.87335035	0.94427191	0.10550738	-1.0941783	0.94800703	0.02265497	-0.95764211	1.4053382	-0.14717246	-0.99164619	1.391153	0.17513763	-1.053384	1.4266682	0.0058366767	-1.0484306	1.0631715	-0.20864231	-1.126688	1.074088	0.17702544	-0.83813713	0.93218264	-0.16194701	-1.1036844	0.85221982	0.26709532
77	0.304	-1.38178	0.062768561	-0.0700567	-0.71298602	0.040548434	0.046136491	-1.3743855	0.2005254	-0.10901611	-0.85327904	0.051528735	0.080614429	-1.3532883	0.19724208	-0.028998293	-0.83728626	0.082777539	-0.0002861463	-1.4094177	0.25036021	-0.054092598	-0.90397105	0.028285238	0.032202475	-1.0689626	0.42428339	-0.14206654	-0.84078252	0.45146498	0.13229622	-1.0475746	0.38345332	-0.029346747	-0.84611076	0.46189136	0.004680271	-0.99164142	0.79839703	-0.1772466	-0.92096045	0.86274295	0.19831105	-0.9153093	0.90831213	-0.1283031	-0.86828991	0.9446751	0.10583604	-1.0893349	0.9482603	0.022502402	-0.95272539	1.4060068	-0.14691853	-0.98589726	1.3917083	0.17549093	-1.0482305	1.4273923	0.0063616981	-1.0438822	1.0640511	-0.20871753	-1.1201333	1.0743936	0.1779045	-0.83396639	0.93201739	-0.16217372	-1.0966059	0.85243142	0.26787152
78	0.308	-1.3749814	0.065561904	-0.071020599	-0.71287484	0.040455689	0.046007781	-1.3651028	0.20315489	-0.10919207	-0.85324333	0.051635011	0.080505052	-1.3440565	0.19918087	-0.029179788	-0.83712492	0.08267177	-0.00053386442	-1.3988486	0.25363507	-0.055047505	-0.903969	0.0283948	0.031918362	-1.0581055	0.42389347	-0.14275675	-0.83735599	0.45132415	0.13174801	-1.0365465	0.38334381	-0.029891003	-0.84309673	0.46215337	0.0042674972	-0.98584014	0.79881076	-0.17685708	-0.91656168	0.86294305	0.19832149	-0.90992411	0.90938466	-0.12802009	-0.86328645	0.94508603	0.10620044	-1.0845055	0.94850077	0.0223542	-0.94782681	1.4066479	-0.14669163	-0.98008473	1.3922579	0.17579332	-1.0430895	1.4281006	0.0068680269	-1.0393991	1.0648982	-0.20890693	-1.1135916	1.0746828	0.17884399	-0.83001019	0.93181131	-0.16255015	-1.0892228	0.8526364	0.26872067
79	0.312	-1.3673224	0.068419571	-0.071987356	-0.71275475	0.040369326	0.045851147	-1.3557204	0.20577003	-0.10934114	-0.8532112	0.051756625	0.08039106	-1.3328989	0.20130107	-0.029887935	-0.83696518	0.082560132	-0.00079766896	-1.3885217	0.25669467	-0.055805862	-0.90397106	0.028528643	0.031541459	-1.0473205	0.42358282	-0.1434133	-0.83381258	0.45116616	0.13123661	-1.0256996	0.38340743	-0.030345769	-0.84000159	0.46236739	0.0038129164	-0.98005562	0.79923246	-0.17649875	-0.91215293	0.86309958	0.19829669	-0.90446017	0.91055645	-0.12771106	-0.85833995	0.94550346	0.1066032	-1.0796788	0.94871636	0.022221821	-0.94295385	1.4072638	-0.14649091	-0.97426257	1.3928119	0.17607454	-1.0379681	1.4288043	0.0073607211	-1.0349627	1.0657174	-0.20917762	-1.1070739	1.0749301	0.17987427	-0.82627008	0.93156319	-0.1630464	-1.0816124	0.85283207	0.26961511
